<?xml version="1.0" encoding="UTF-8" standalone="no"?>
<svg
   xmlns:dc="http://purl.org/dc/elements/1.1/"
   xmlns:cc="http://creativecommons.org/ns#"
   xmlns:rdf="http://www.w3.org/1999/02/22-rdf-syntax-ns#"
   xmlns:svg="http://www.w3.org/2000/svg"
   xmlns="http://www.w3.org/2000/svg"
   xmlns:sodipodi="http://sodipodi.sourceforge.net/DTD/sodipodi-0.dtd"
   xmlns:inkscape="http://www.inkscape.org/namespaces/inkscape"
   width="256"
   height="256"
   viewBox="0 0 67.733332 67.733335"
   version="1.1"
   id="svg8"
   inkscape:version="1.0.1 (3bc2e813f5, 2020-09-07)"
   sodipodi:docname="icon.svg"
   inkscape:export-filename="C:\Users\ithas\Projects\MQTTToolbox\apps\dashboard\src\assets\icon-128.png"
   inkscape:export-xdpi="48.000004"
   inkscape:export-ydpi="48.000004">
  <defs
     id="defs2" />
  <sodipodi:namedview
     id="base"
     pagecolor="#ffffff"
     bordercolor="#666666"
     borderopacity="1.0"
     inkscape:pageopacity="0.0"
     inkscape:pageshadow="2"
     inkscape:zoom="2.8"
     inkscape:cx="141.30425"
     inkscape:cy="121.94824"
     inkscape:document-units="mm"
     inkscape:current-layer="layer1"
     inkscape:document-rotation="0"
     showgrid="false"
     units="px"
     inkscape:window-width="2160"
     inkscape:window-height="1373"
     inkscape:window-x="-9"
     inkscape:window-y="-9"
     inkscape:window-maximized="1" />
  <metadata
     id="metadata5">
    <rdf:RDF>
      <cc:Work
         rdf:about="">
        <dc:format>image/svg+xml</dc:format>
        <dc:type
           rdf:resource="http://purl.org/dc/dcmitype/StillImage" />
        <dc:title />
      </cc:Work>
    </rdf:RDF>
  </metadata>
  <g
     inkscape:label="Calque 1"
     inkscape:groupmode="layer"
     id="layer1">
    <rect
       style="opacity:0.996;fill:#2c5aa0;stroke:none;stroke-width:0.3"
       id="rect833"
       width="67.73333"
       height="67.73333"
       x="-1.3877788e-17"
       y="0"
       rx="8.4666662"
       ry="8.4666662" />
    <g
       aria-label="MQTT"
       id="text837"
       style="font-style:normal;font-weight:normal;font-size:22.5778px;line-height:1.25;font-family:sans-serif;fill:#7c7c7c;fill-opacity:1;stroke:none;stroke-width:0.264583">
      <path
         d="m 21.784014,40.613549 q 0,0.341754 -0.319705,0.341754 h -3.902608 q -0.319705,0 -0.319705,-0.385851 0,-1.113456 0.07717,-3.340368 0.0882,-2.226912 0.0882,-3.340368 0,-0.319705 -0.09922,-0.341754 -0.121268,0.06615 -1.477259,3.406514 -0.79375,1.962329 -1.587501,3.913633 -0.110243,0.253559 -0.275608,0.297656 -0.05512,0.01102 -0.440973,0.01102 -0.573264,0 -0.683507,-0.220487 -0.595314,-1.212675 -1.565453,-3.527781 -1.036286,-2.447398 -1.5544291,-3.538806 -0.022049,-0.05512 -0.099219,-0.121267 -0.07717,0.09922 -0.07717,0.319705 0,1.080383 0.055122,3.241149 0.055122,2.160766 0.055122,3.241149 0,0.385851 -0.3086809,0.385851 H 5.6664633 q -0.2204863,0 -0.2756079,-0.06615 -0.044097,-0.07717 -0.044097,-0.253559 0,-1.201651 0.1102432,-3.604952 0.1212675,-2.414325 0.1212675,-3.615975 0,-1.278821 -0.1102432,-4.795578 -0.011024,-0.915019 -0.099219,-2.723007 l -0.011024,-0.187413 q -0.011024,-0.220486 0.4630213,-0.220486 0.6063374,0 1.8190123,-0.03307 1.2126748,-0.0441 1.8190123,-0.0441 0.1212674,0 0.3417538,0.463021 l 3.2191009,7.066587 q 0.341753,0.71658 0.573264,0.71658 0.121268,0 0.518143,-0.826823 1.113456,-2.315107 3.296271,-6.978393 0.187413,-0.429948 0.407899,-0.429948 0.319706,0 0.959116,0.03307 0.650435,0.03307 0.981164,0.03307 0.275608,0 0.837848,-0.05512 0.573265,-0.05512 0.848873,-0.05512 0.330729,0 0.330729,0.264583 0,1.30087 -0.09922,3.891584 -0.08819,2.57969 -0.08819,3.88056 0,1.20165 0.09922,3.604951 0.09922,2.403301 0.09922,3.593927 z"
         style="font-style:normal;font-variant:normal;font-weight:normal;font-stretch:normal;font-size:22.5778px;font-family:'Berlin Sans FB Demi';-inkscape-font-specification:'Berlin Sans FB Demi';fill:#7c7c7c;fill-opacity:1;stroke-width:0.264583"
         id="path865" />
      <path
         d="m 39.147314,33.238281 q 0,2.932469 -1.598526,5.049138 -1.631599,2.17179 -4.453824,2.778127 0.551216,1.124481 1.642623,2.061548 0.09922,0.07717 0.09922,0.143316 0,0.440972 -2.711982,0.440972 -1.995401,0 -2.458423,-0.15434 -0.253559,-0.0882 -0.319705,-0.4079 -0.132292,-0.63941 -0.08819,-2.127693 -2.700958,-0.672483 -4.28846,-2.844274 -1.543404,-2.105644 -1.543404,-4.938894 0,-3.428562 2.204863,-5.765717 2.248961,-2.392277 5.655475,-2.392277 3.384465,0 5.64445,2.403301 2.215888,2.34818 2.215888,5.754693 z m -4.178216,-0.02205 q 0,-1.697745 -0.981165,-2.83325 -1.036285,-1.190626 -2.700957,-1.190626 -1.719794,0 -2.723006,1.179602 -0.959116,1.113456 -0.959116,2.866322 0,1.78594 0.937067,2.866323 0.981164,1.146529 2.745055,1.146529 1.708769,0 2.723006,-1.179602 0.959116,-1.12448 0.959116,-2.855298 z"
         style="font-style:normal;font-variant:normal;font-weight:normal;font-stretch:normal;font-size:22.5778px;font-family:'Berlin Sans FB Demi';-inkscape-font-specification:'Berlin Sans FB Demi';fill:#7c7c7c;fill-opacity:1;stroke-width:0.264583"
         id="path867" />
      <path
         d="m 51.527619,28.861628 q 0,0.220486 -0.242535,0.220486 -0.418924,0 -3.318319,-0.165365 -0.06615,2.789152 -0.06615,3.891584 0,1.300869 0.09922,3.913633 0.110243,2.612763 0.110243,3.913632 0,0.209462 -0.09922,0.264584 -0.03307,0.02205 -0.308681,0.05512 -0.661459,0.08819 -1.94028,0.08819 -1.422137,0 -1.995401,-0.08819 -0.308681,-0.05512 -0.308681,-0.341754 0,-1.300869 0.110243,-3.902608 0.110243,-2.601739 0.110243,-3.902608 0,-0.859897 -0.08819,-3.836462 -2.204864,0.220486 -3.516757,0.220486 -0.176389,0 -0.176389,-0.110243 0,-0.143316 0.15434,-0.848872 0.176389,-0.771703 0.198438,-0.937067 0.03307,-0.518143 0.07717,-1.036286 0.07717,-0.826824 0.264584,-0.826824 0.02205,0 0.15434,0.01102 1.785939,0.231511 5.280648,0.231511 0.992188,0 3.660073,-0.209462 1.433161,-0.110243 1.444186,-0.110243 0.220486,0 0.253559,0.03307 0.03307,0.02205 0.0441,0.209462 0,0.297656 -0.02205,0.826824 -0.02205,0.584288 -0.02205,0.826823 0,0.275608 0.06615,0.8158 0.07717,0.529167 0.07717,0.793751 z"
         style="font-style:normal;font-variant:normal;font-weight:normal;font-stretch:normal;font-size:22.5778px;font-family:'Berlin Sans FB Demi';-inkscape-font-specification:'Berlin Sans FB Demi';fill:#7c7c7c;fill-opacity:1;stroke-width:0.264583"
         id="path869" />
      <path
         d="m 63.444909,28.861628 q 0,0.220486 -0.242535,0.220486 -0.418924,0 -3.31832,-0.165365 -0.06615,2.789152 -0.06615,3.891584 0,1.300869 0.09922,3.913633 0.110243,2.612763 0.110243,3.913632 0,0.209462 -0.09922,0.264584 -0.03307,0.02205 -0.308681,0.05512 -0.661459,0.08819 -1.94028,0.08819 -1.422137,0 -1.995401,-0.08819 -0.308681,-0.05512 -0.308681,-0.341754 0,-1.300869 0.110243,-3.902608 0.110243,-2.601739 0.110243,-3.902608 0,-0.859897 -0.08819,-3.836462 -2.204864,0.220486 -3.516757,0.220486 -0.17639,0 -0.17639,-0.110243 0,-0.143316 0.154341,-0.848872 0.176389,-0.771703 0.198438,-0.937067 0.03307,-0.518143 0.07717,-1.036286 0.07717,-0.826824 0.264583,-0.826824 0.02205,0 0.154341,0.01102 1.785939,0.231511 5.280648,0.231511 0.992188,0 3.660073,-0.209462 1.433161,-0.110243 1.444185,-0.110243 0.220487,0 0.25356,0.03307 0.03307,0.02205 0.0441,0.209462 0,0.297656 -0.02205,0.826824 -0.02205,0.584288 -0.02205,0.826823 0,0.275608 0.06615,0.8158 0.07717,0.529167 0.07717,0.793751 z"
         style="font-style:normal;font-variant:normal;font-weight:normal;font-stretch:normal;font-size:22.5778px;font-family:'Berlin Sans FB Demi';-inkscape-font-specification:'Berlin Sans FB Demi';fill:#7c7c7c;fill-opacity:1;stroke-width:0.264583"
         id="path871" />
    </g>
    <g
       aria-label="MQTT"
       id="text841"
       style="font-style:normal;font-weight:normal;font-size:22.5778px;line-height:1.25;font-family:sans-serif;fill:#ffffff;fill-opacity:1;stroke:none;stroke-width:0.264583">
      <path
         d="m 20.725681,39.555215 q 0,0.341754 -0.319705,0.341754 h -3.902608 q -0.319705,0 -0.319705,-0.385851 0,-1.113456 0.07717,-3.340368 0.08819,-2.226912 0.08819,-3.340368 0,-0.319705 -0.09922,-0.341754 -0.121267,0.06615 -1.477258,3.406514 -0.793751,1.962328 -1.587502,3.913632 -0.110243,0.25356 -0.275608,0.297657 -0.05512,0.01102 -0.440972,0.01102 -0.573265,0 -0.683508,-0.220486 -0.595313,-1.212675 -1.565453,-3.527782 -1.0362856,-2.447398 -1.5544285,-3.538805 -0.022049,-0.05512 -0.099219,-0.121268 -0.07717,0.09922 -0.07717,0.319705 0,1.080384 0.055122,3.24115 0.055122,2.160766 0.055122,3.241149 0,0.385851 -0.3086809,0.385851 H 4.6081299 q -0.2204863,0 -0.2756079,-0.06615 -0.044097,-0.07717 -0.044097,-0.253559 0,-1.201651 0.1102432,-3.604952 0.1212675,-2.414325 0.1212675,-3.615976 0,-1.278821 -0.1102432,-4.795578 -0.011024,-0.915018 -0.099219,-2.723006 L 4.299449,24.650339 q -0.011024,-0.220487 0.4630213,-0.220487 0.6063375,0 1.8190123,-0.03307 1.2126748,-0.0441 1.8190123,-0.0441 0.1212674,0 0.3417538,0.463021 l 3.2191003,7.066588 q 0.341754,0.71658 0.573265,0.71658 0.121267,0 0.518143,-0.826824 1.113456,-2.315106 3.29627,-6.978392 0.187414,-0.429948 0.4079,-0.429948 0.319705,0 0.959116,0.03307 0.650434,0.03307 0.981164,0.03307 0.275608,0 0.837848,-0.05512 0.573264,-0.05512 0.848872,-0.05512 0.33073,0 0.33073,0.264584 0,1.300869 -0.09922,3.891584 -0.0882,2.57969 -0.0882,3.880559 0,1.201651 0.09922,3.604952 0.09922,2.403301 0.09922,3.593927 z"
         style="font-style:normal;font-variant:normal;font-weight:normal;font-stretch:normal;font-size:22.5778px;font-family:'Berlin Sans FB Demi';-inkscape-font-specification:'Berlin Sans FB Demi';fill:#ffffff;stroke-width:0.264583"
         id="path874" />
      <path
         d="m 38.08898,32.179947 q 0,2.932468 -1.598526,5.049137 -1.631598,2.171791 -4.453824,2.778128 0.551216,1.12448 1.642624,2.061547 0.09922,0.07717 0.09922,0.143316 0,0.440973 -2.711981,0.440973 -1.995402,0 -2.458423,-0.15434 -0.253559,-0.08819 -0.319705,-0.4079 -0.132292,-0.63941 -0.08819,-2.127693 -2.700957,-0.672484 -4.288459,-2.844274 -1.543404,-2.105644 -1.543404,-4.938894 0,-3.428562 2.204863,-5.765718 2.248961,-2.392276 5.655474,-2.392276 3.384466,0 5.644451,2.403301 2.215887,2.348179 2.215887,5.754693 z m -4.178216,-0.02205 q 0,-1.697744 -0.981164,-2.833249 -1.036286,-1.190626 -2.700958,-1.190626 -1.719793,0 -2.723006,1.179602 -0.959115,1.113456 -0.959115,2.866322 0,1.785939 0.937067,2.866322 0.981164,1.146529 2.745054,1.146529 1.70877,0 2.723007,-1.179601 0.959115,-1.124481 0.959115,-2.855299 z"
         style="font-style:normal;font-variant:normal;font-weight:normal;font-stretch:normal;font-size:22.5778px;font-family:'Berlin Sans FB Demi';-inkscape-font-specification:'Berlin Sans FB Demi';fill:#ffffff;stroke-width:0.264583"
         id="path876" />
      <path
         d="m 50.469286,27.803293 q 0,0.220487 -0.242535,0.220487 -0.418924,0 -3.31832,-0.165365 -0.06615,2.789152 -0.06615,3.891584 0,1.300869 0.09922,3.913632 0.110243,2.612763 0.110243,3.913633 0,0.209462 -0.09922,0.264583 -0.03307,0.02205 -0.30868,0.05512 -0.661459,0.08819 -1.94028,0.08819 -1.422137,0 -1.995401,-0.08819 -0.308681,-0.05512 -0.308681,-0.341754 0,-1.300869 0.110243,-3.902608 0.110243,-2.601739 0.110243,-3.902608 0,-0.859897 -0.08819,-3.836462 -2.204863,0.220486 -3.516757,0.220486 -0.176389,0 -0.176389,-0.110243 0,-0.143316 0.154341,-0.848873 0.176389,-0.771702 0.198437,-0.937067 0.03307,-0.518143 0.07717,-1.036285 0.07717,-0.826824 0.264583,-0.826824 0.02205,0 0.154341,0.01102 1.785939,0.231511 5.280647,0.231511 0.992189,0 3.660074,-0.209462 1.433161,-0.110243 1.444185,-0.110243 0.220486,0 0.253559,0.03307 0.03307,0.02205 0.0441,0.209462 0,0.297656 -0.02205,0.826823 -0.02205,0.584289 -0.02205,0.826824 0,0.275608 0.06615,0.8158 0.07717,0.529167 0.07717,0.79375 z"
         style="font-style:normal;font-variant:normal;font-weight:normal;font-stretch:normal;font-size:22.5778px;font-family:'Berlin Sans FB Demi';-inkscape-font-specification:'Berlin Sans FB Demi';fill:#ffffff;stroke-width:0.264583"
         id="path878" />
      <path
         d="m 62.386575,27.803293 q 0,0.220487 -0.242535,0.220487 -0.418924,0 -3.318319,-0.165365 -0.06615,2.789152 -0.06615,3.891584 0,1.300869 0.09922,3.913632 0.110243,2.612763 0.110243,3.913633 0,0.209462 -0.09922,0.264583 -0.03307,0.02205 -0.308681,0.05512 -0.661459,0.08819 -1.940279,0.08819 -1.422137,0 -1.995402,-0.08819 -0.308681,-0.05512 -0.308681,-0.341754 0,-1.300869 0.110244,-3.902608 0.110243,-2.601739 0.110243,-3.902608 0,-0.859897 -0.08819,-3.836462 -2.204863,0.220486 -3.516757,0.220486 -0.176389,0 -0.176389,-0.110243 0,-0.143316 0.15434,-0.848873 0.17639,-0.771702 0.198438,-0.937067 0.03307,-0.518143 0.07717,-1.036285 0.07717,-0.826824 0.264584,-0.826824 0.02205,0 0.15434,0.01102 1.78594,0.231511 5.280648,0.231511 0.992189,0 3.660073,-0.209462 1.433162,-0.110243 1.444186,-0.110243 0.220486,0 0.253559,0.03307 0.03307,0.02205 0.0441,0.209462 0,0.297656 -0.02205,0.826823 -0.02205,0.584289 -0.02205,0.826824 0,0.275608 0.06615,0.8158 0.07717,0.529167 0.07717,0.79375 z"
         style="font-style:normal;font-variant:normal;font-weight:normal;font-stretch:normal;font-size:22.5778px;font-family:'Berlin Sans FB Demi';-inkscape-font-specification:'Berlin Sans FB Demi';fill:#ffffff;stroke-width:0.264583"
         id="path880" />
    </g>
  </g>
</svg>
